<svg xmlns="http://www.w3.org/2000/svg" width="25" height="25" viewBox="0 0 25 25" version="1.1"><path d="" stroke="none" fill="#042484" fill-rule="evenodd"/><path d="M 12 6.786 C 7.325 8.829, 2.938 10.864, 2.250 11.309 C 0.255 12.600, 0.792 13.910, 3.608 14.616 C 5.306 15.043, 6.705 16.443, 7.621 18.635 C 9.110 22.199, 9.652 22.506, 11.918 21.072 C 12.836 20.491, 14.155 20.711, 15.660 21.697 C 19.235 24.039, 20.510 22.782, 21.830 15.617 C 22.499 11.990, 23.316 7.668, 23.648 6.011 C 24.457 1.965, 22.781 2.076, 12 6.786 M 20 6.497 C 20 7.321, 18.425 9.738, 16.500 11.868 C 14.575 13.999, 13 16.166, 13 16.683 C 13 17.201, 14.303 18.587, 15.896 19.765 L 18.791 21.906 19.984 15.203 C 20.640 11.516, 21.392 7.713, 21.656 6.750 C 21.919 5.787, 21.654 5, 21.067 5 C 20.480 5, 20 5.674, 20 6.497 M 10.170 9.451 C 3.998 12.207, 3.206 12.821, 5.162 13.332 C 6.852 13.774, 9.124 12.859, 13.493 9.979 C 20.709 5.221, 19.923 5.096, 10.170 9.451 M 11.223 13.557 C 10 14.413, 9.036 16.100, 9.079 17.307 C 9.132 18.769, 9.341 19, 9.706 18 C 10.008 17.175, 11.176 15.488, 12.302 14.250 C 14.698 11.616, 14.330 11.380, 11.223 13.557" stroke="none" fill="#04247c" fill-rule="evenodd"/></svg>